{
  "accessors": [
    {
      "bufferView": 2,
      "componentType": 5126,
      "count": 3840,
      "max": [
        23.237716674804688,
        16.253631591796875,
        9.776618957519531
      ],
      "min": [
        -19.195016860961914,
        1.5049333572387695,
        -8.333580017089844
      ],
      "type": "VEC3"
    },
    {
      "bufferView": 2,
      "byteOffset": 46080,
      "componentType": 5126,
      "count": 3840,
      "max": [
        0.9379169344902039,
        0.9990774989128113,
        0.9999383687973022
      ],
      "min": [
        -0.9378288388252258,
        -0.9990774393081665,
        -0.9999367594718933
      ],
      "type": "VEC3"
    },
    {
      "bufferView": 1,
      "componentType": 5126,
      "count": 3840,
      "max": [
        0.9958731532096863,
        1.0
      ],
      "min": [
        -2.3283064365386963e-10,
        0.0
      ],
      "type": "VEC2"
    },
    {
      "bufferView": 0,
      "componentType": 5125,
      "count": 5760,
      "type": "SCALAR"
    },
    {
      "bufferView": 2,
      "byteOffset": 92160,
      "componentType": 5126,
      "count": 8600,
      "max": [
        23.89792251586914,
        12.02649211883545,
        9.730541229248047
      ],
      "min": [
        -18.429805755615234,
        -2.2435569763183594,
        -8.284627914428711
      ],
      "type": "VEC3"
    },
    {
      "bufferView": 2,
      "byteOffset": 195360,
      "componentType": 5126,
      "count": 8600,
      "max": [
        0.9999609589576721,
        0.9998807907104492,
        0.9994893074035645
      ],
      "min": [
        -0.9999635219573975,
        -0.999940812587738,
        -0.9994893074035645
      ],
      "type": "VEC3"
    },
    {
      "bufferView": 1,
      "byteOffset": 30720,
      "componentType": 5126,
      "count": 8600,
      "max": [
        1.0,
        0.9989508986473083
      ],
      "min": [
        0.0,
        0.0
      ],
      "type": "VEC2"
    },
    {
      "bufferView": 0,
      "byteOffset": 23040,
      "componentType": 5125,
      "count": 13416,
      "type": "SCALAR"
    },
    {
      "bufferView": 2,
      "byteOffset": 298560,
      "componentType": 5126,
      "count": 2000,
      "max": [
        23.089799880981445,
        15.780645370483398,
        9.421813011169434
      ],
      "min": [
        -18.79876136779785,
        1.626211166381836,
        -7.8208327293396
      ],
      "type": "VEC3"
    },
    {
      "bufferView": 2,
      "byteOffset": 322560,
      "componentType": 5126,
      "count": 2000,
      "max": [
        0.9487967491149902,
        0.9972701072692871,
        0.9906845092773438
      ],
      "min": [
        -0.9996892213821411,
        -0.999201774597168,
        -0.9744302034378052
      ],
      "type": "VEC3"
    },
    {
      "bufferView": 1,
      "byteOffset": 99520,
      "componentType": 5126,
      "count": 2000,
      "max": [
        1.0,
        0.9983567595481873
      ],
      "min": [
        0.0,
        0.0
      ],
      "type": "VEC2"
    },
    {
      "bufferView": 0,
      "byteOffset": 76704,
      "componentType": 5125,
      "count": 3000,
      "type": "SCALAR"
    },
    {
      "bufferView": 2,
      "byteOffset": 346560,
      "componentType": 5126,
      "count": 48288,
      "max": [
        25.291303634643555,
        12.381598472595215,
        10.860834121704102
      ],
      "min": [
        -20.795366287231445,
        -4.294475555419922,
        -9.106698989868164
      ],
      "type": "VEC3"
    },
    {
      "bufferView": 2,
      "byteOffset": 926016,
      "componentType": 5126,
      "count": 48288,
      "max": [
        0.9999996423721313,
        1.0,
        0.9999995827674866
      ],
      "min": [
        -0.9999996423721313,
        -1.0,
        -0.9999995827674866
      ],
      "type": "VEC3"
    },
    {
      "bufferView": 1,
      "byteOffset": 115520,
      "componentType": 5126,
      "count": 48288,
      "max": [
        0.9982836842536926,
        1.0
      ],
      "min": [
        0.0,
        0.0
      ],
      "type": "VEC2"
    },
    {
      "bufferView": 0,
      "byteOffset": 88704,
      "componentType": 5125,
      "count": 72432,
      "type": "SCALAR"
    },
    {
      "bufferView": 2,
      "byteOffset": 1505472,
      "componentType": 5126,
      "count": 65532,
      "max": [
        23.83280372619629,
        11.692651748657227,
        10.244126319885254
      ],
      "min": [
        -19.595766067504883,
        -4.032961368560791,
        -8.59212875366211
      ],
      "type": "VEC3"
    },
    {
      "bufferView": 2,
      "byteOffset": 2291856,
      "componentType": 5126,
      "count": 65532,
      "max": [
        0.9998851418495178,
        1.0,
        0.9999996423721313
      ],
      "min": [
        -0.9998852610588074,
        -1.0,
        -0.9999996423721313
      ],
      "type": "VEC3"
    },
    {
      "bufferView": 1,
      "byteOffset": 501824,
      "componentType": 5126,
      "count": 65532,
      "max": [
        0.9994568824768066,
        1.0
      ],
      "min": [
        0.0,
        0.0
      ],
      "type": "VEC2"
    },
    {
      "bufferView": 0,
      "byteOffset": 378432,
      "componentType": 5125,
      "count": 98298,
      "type": "SCALAR"
    },
    {
      "bufferView": 2,
      "byteOffset": 3078240,
      "componentType": 5126,
      "count": 3972,
      "max": [
        21.589488983154297,
        3.8876984119415283,
        10.240056037902832
      ],
      "min": [
        -19.592288970947266,
        -3.5586953163146973,
        -1.4291269779205322
      ],
      "type": "VEC3"
    },
    {
      "bufferView": 2,
      "byteOffset": 3125904,
      "componentType": 5126,
      "count": 3972,
      "max": [
        0.9996950626373291,
        0.9999927282333374,
        0.9999995827674866
      ],
      "min": [
        -0.9996950030326843,
        -0.9999926686286926,
        -0.9999995827674866
      ],
      "type": "VEC3"
    },
    {
      "bufferView": 1,
      "byteOffset": 1026080,
      "componentType": 5126,
      "count": 3972,
      "max": [
        0.9994567632675171,
        0.9997841119766235
      ],
      "min": [
        0.0,
        3.4570693969726563e-06
      ],
      "type": "VEC2"
    },
    {
      "bufferView": 0,
      "byteOffset": 771624,
      "componentType": 5125,
      "count": 5958,
      "type": "SCALAR"
    },
    {
      "bufferView": 2,
      "byteOffset": 3173568,
      "componentType": 5126,
      "count": 10776,
      "max": [
        -13.400230407714844,
        5.585285186767578,
        4.243642807006836
      ],
      "min": [
        -19.002197265625,
        2.2698135375976563,
        -1.1517524719238281
      ],
      "type": "VEC3"
    },
    {
      "bufferView": 2,
      "byteOffset": 3302880,
      "componentType": 5126,
      "count": 10776,
      "max": [
        0.9822906851768494,
        0.9897414445877075,
        0.991133451461792
      ],
      "min": [
        -0.9813302159309387,
        -0.9660105109214783,
        -0.9910956025123596
      ],
      "type": "VEC3"
    },
    {
      "bufferView": 1,
      "byteOffset": 1057856,
      "componentType": 5126,
      "count": 10776,
      "max": [
        1.0,
        0.9969063997268677
      ],
      "min": [
        0.0,
        0.0
      ],
      "type": "VEC2"
    },
    {
      "bufferView": 0,
      "byteOffset": 795456,
      "componentType": 5125,
      "count": 15216,
      "type": "SCALAR"
    }
  ],
  "asset": {
    "extras": {
      "author": "gaartt (https://sketchfab.com/gaartt)",
      "license": "CC-BY-4.0 (http://creativecommons.org/licenses/by/4.0/)",
      "source": "https://sketchfab.com/3d-models/roller-coaster-0fe5fdbee4bf493d85b668ccaef144a5",
      "title": "Roller Coaster"
    },
    "generator": "Sketchfab-16.45.0",
    "version": "2.0"
  },
  "bufferViews": [
    {
      "buffer": 0,
      "byteLength": 856320,
      "name": "floatBufferViews",
      "target": 34963
    },
    {
      "buffer": 0,
      "byteLength": 1144064,
      "byteOffset": 856320,
      "byteStride": 8,
      "name": "floatBufferViews",
      "target": 34962
    },
    {
      "buffer": 0,
      "byteLength": 3432192,
      "byteOffset": 2000384,
      "byteStride": 12,
      "name": "floatBufferViews",
      "target": 34962
    }
  ],
  "buffers": [
    {
      "byteLength": 5432576,
      "uri": "scene.bin"
    }
  ],
  "extensionsUsed": [
    "KHR_materials_specular"
  ],
  "images": [
    {
      "uri": "textures/trilho_da_lateral_baseColor.png"
    },
    {
      "uri": "textures/trilho_da_lateral_metallicRoughness.png"
    },
    {
      "uri": "textures/trilhos_baseColor.png"
    },
    {
      "uri": "textures/trilhos_metallicRoughness.png"
    },
    {
      "uri": "textures/trilho_do_meio_baseColor.png"
    },
    {
      "uri": "textures/trilho_do_meio_metallicRoughness.png"
    },
    {
      "uri": "textures/estrutura_baseColor.png"
    },
    {
      "uri": "textures/estrutura_metallicRoughness.png"
    },
    {
      "uri": "textures/bolhinhas_baseColor.png"
    },
    {
      "uri": "textures/bolhinhas_metallicRoughness.png"
    },
    {
      "uri": "textures/bolhinhas_specularf0.png"
    },
    {
      "uri": "textures/carrinho_baseColor.png"
    },
    {
      "uri": "textures/carrinho_metallicRoughness.png"
    }
  ],
  "materials": [
    {
      "doubleSided": true,
      "name": "trilho_da_lateral",
      "pbrMetallicRoughness": {
        "baseColorTexture": {
          "index": 0
        },
        "metallicRoughnessTexture": {
          "index": 1
        }
      }
    },
    {
      "doubleSided": true,
      "name": "trilhos",
      "pbrMetallicRoughness": {
        "baseColorTexture": {
          "index": 2
        },
        "metallicRoughnessTexture": {
          "index": 3
        }
      }
    },
    {
      "doubleSided": true,
      "name": "trilho_do_meio",
      "pbrMetallicRoughness": {
        "baseColorTexture": {
          "index": 4
        },
        "metallicRoughnessTexture": {
          "index": 5
        }
      }
    },
    {
      "doubleSided": true,
      "name": "estrutura",
      "pbrMetallicRoughness": {
        "baseColorTexture": {
          "index": 6
        },
        "metallicRoughnessTexture": {
          "index": 7
        }
      }
    },
    {
      "doubleSided": true,
      "extensions": {
        "KHR_materials_specular": {
          "specularColorFactor": [
            1.0,
            1.0,
            1.0
          ],
          "specularFactor": 1.0,
          "specularTexture": {
            "index": 10
          }
        }
      },
      "name": "bolhinhas",
      "pbrMetallicRoughness": {
        "baseColorTexture": {
          "index": 8
        },
        "metallicRoughnessTexture": {
          "index": 9
        }
      }
    },
    {
      "doubleSided": true,
      "name": "carrinho",
      "pbrMetallicRoughness": {
        "baseColorTexture": {
          "index": 11
        },
        "metallicRoughnessTexture": {
          "index": 12
        }
      }
    }
  ],
  "meshes": [
    {
      "name": "sweep1_trilho_da_lateral_0",
      "primitives": [
        {
          "attributes": {
            "NORMAL": 1,
            "POSITION": 0,
            "TEXCOORD_0": 2
          },
          "indices": 3,
          "material": 0,
          "mode": 4
        }
      ]
    },
    {
      "name": "MASH1_ReproMesh_trilhos_0",
      "primitives": [
        {
          "attributes": {
            "NORMAL": 5,
            "POSITION": 4,
            "TEXCOORD_0": 6
          },
          "indices": 7,
          "material": 1,
          "mode": 4
        }
      ]
    },
    {
      "name": "sweep2_trilho_do_meio_0",
      "primitives": [
        {
          "attributes": {
            "NORMAL": 9,
            "POSITION": 8,
            "TEXCOORD_0": 10
          },
          "indices": 11,
          "material": 2,
          "mode": 4
        }
      ]
    },
    {
      "name": "MASH2_ReproMesh_estrutura_0",
      "primitives": [
        {
          "attributes": {
            "NORMAL": 13,
            "POSITION": 12,
            "TEXCOORD_0": 14
          },
          "indices": 15,
          "material": 3,
          "mode": 4
        }
      ]
    },
    {
      "name": "MASH3_ReproMesh_bolhinhas_0",
      "primitives": [
        {
          "attributes": {
            "NORMAL": 17,
            "POSITION": 16,
            "TEXCOORD_0": 18
          },
          "indices": 19,
          "material": 4,
          "mode": 4
        }
      ]
    },
    {
      "name": "MASH3_ReproMesh_bolhinhas_0",
      "primitives": [
        {
          "attributes": {
            "NORMAL": 21,
            "POSITION": 20,
            "TEXCOORD_0": 22
          },
          "indices": 23,
          "material": 4,
          "mode": 4
        }
      ]
    },
    {
      "name": "group5_pasted__pasted__pasted__pCylinder1_carrinho_0",
      "primitives": [
        {
          "attributes": {
            "NORMAL": 25,
            "POSITION": 24,
            "TEXCOORD_0": 26
          },
          "indices": 27,
          "material": 5,
          "mode": 4
        }
      ]
    }
  ],
  "nodes": [
    {
      "children": [
        1
      ],
      "matrix": [
        43.811279296875,
        0.0,
        0.0,
        0.0,
        0.0,
        9.728058202734813e-15,
        -43.811279296875,
        0.0,
        0.0,
        43.811279296875,
        9.728058202734813e-15,
        0.0,
        0.0,
        0.0,
        0.0,
        1.0
      ],
      "name": "Sketchfab_model"
    },
    {
      "children": [
        2
      ],
      "matrix": [
        0.009999999776482582,
        0.0,
        0.0,
        0.0,
        0.0,
        0.0,
        0.009999999776482582,
        0.0,
        0.0,
        -0.009999999776482582,
        0.0,
        0.0,
        0.0,
        0.0,
        0.0,
        1.0
      ],
      "name": "MONTANHA RUSSAAAAAAA.fbx"
    },
    {
      "children": [
        3,
        5,
        7,
        9,
        11,
        14
      ],
      "name": "RootNode"
    },
    {
      "children": [
        4
      ],
      "matrix": [
        1.0,
        0.0,
        0.0,
        0.0,
        0.0,
        1.0,
        0.0,
        0.0,
        0.0,
        0.0,
        1.0,
        0.0,
        0.0,
        -0.13859474658966064,
        0.0,
        1.0
      ],
      "name": "sweep1"
    },
    {
      "mesh": 0,
      "name": "sweep1_trilho_da_lateral_0"
    },
    {
      "children": [
        6
      ],
      "matrix": [
        1.0,
        0.0,
        0.0,
        0.0,
        0.0,
        1.0,
        0.0,
        0.0,
        0.0,
        0.0,
        1.0,
        0.0,
        -0.6960349678993225,
        4.214714050292969,
        0.0,
        1.0
      ],
      "name": "MASH1_ReproMesh"
    },
    {
      "mesh": 1,
      "name": "MASH1_ReproMesh_trilhos_0"
    },
    {
      "children": [
        8
      ],
      "matrix": [
        1.0,
        0.0,
        0.0,
        0.0,
        0.0,
        1.0,
        0.0,
        0.0,
        0.0,
        0.0,
        1.0,
        0.0,
        0.0,
        -0.049213044345378876,
        0.0,
        1.0
      ],
      "name": "sweep2"
    },
    {
      "mesh": 2,
      "name": "sweep2_trilho_do_meio_0"
    },
    {
      "children": [
        10
      ],
      "matrix": [
        0.9415286779403687,
        0.0,
        0.0,
        0.0,
        0.0,
        0.9415286779403687,
        0.0,
        0.0,
        0.0,
        0.0,
        0.9415286779403687,
        0.0,
        0.0,
        4.214714050292969,
        0.0,
        1.0
      ],
      "name": "MASH2_ReproMesh"
    },
    {
      "mesh": 3,
      "name": "MASH2_ReproMesh_estrutura_0"
    },
    {
      "children": [
        12,
        13
      ],
      "matrix": [
        1.0,
        0.0,
        0.0,
        0.0,
        0.0,
        1.0,
        0.0,
        0.0,
        0.0,
        0.0,
        1.0,
        0.0,
        0.0,
        4.214714050292969,
        0.0,
        1.0
      ],
      "name": "MASH3_ReproMesh"
    },
    {
      "mesh": 4,
      "name": "MASH3_ReproMesh_bolhinhas_0"
    },
    {
      "mesh": 5,
      "name": "MASH3_ReproMesh_bolhinhas_0"
    },
    {
      "children": [
        15
      ],
      "name": "group5_pasted__pasted__pasted__pCylinder1"
    },
    {
      "mesh": 6,
      "name": "group5_pasted__pasted__pasted__pCylinder1_carrinho_0"
    }
  ],
  "samplers": [
    {
      "magFilter": 9729,
      "minFilter": 9987,
      "wrapS": 10497,
      "wrapT": 10497
    }
  ],
  "scene": 0,
  "scenes": [
    {
      "name": "Sketchfab_Scene",
      "nodes": [
        0
      ]
    }
  ],
  "textures": [
    {
      "sampler": 0,
      "source": 0
    },
    {
      "sampler": 0,
      "source": 1
    },
    {
      "sampler": 0,
      "source": 2
    },
    {
      "sampler": 0,
      "source": 3
    },
    {
      "sampler": 0,
      "source": 4
    },
    {
      "sampler": 0,
      "source": 5
    },
    {
      "sampler": 0,
      "source": 6
    },
    {
      "sampler": 0,
      "source": 7
    },
    {
      "sampler": 0,
      "source": 8
    },
    {
      "sampler": 0,
      "source": 9
    },
    {
      "sampler": 0,
      "source": 10
    },
    {
      "sampler": 0,
      "source": 11
    },
    {
      "sampler": 0,
      "source": 12
    }
  ]
}
