{
	"asset":{
		"generator":"Khronos glTF Blender I/O v4.3.47",
		"version":"2.0"
	},
	"scene":0,
	"scenes":[
		{
			"name":"Scene",
			"nodes":[
				0
			]
		}
	],
	"nodes":[
		{
			"mesh":0,
			"name":"Cube.001",
			"scale":[
				3,
				0.10000000149011612,
				2.9000000953674316
			]
		}
	],
	"materials":[
		{
			"doubleSided":true,
			"name":"Material",
			"pbrMetallicRoughness":{
				"baseColorFactor":[
					0.800000011920929,
					0.800000011920929,
					0.800000011920929,
					1
				],
				"metallicFactor":0,
				"roughnessFactor":0.5
			}
		}
	],
	"meshes":[
		{
			"name":"Cube.001",
			"primitives":[
				{
					"attributes":{
						"POSITION":0,
						"NORMAL":1,
						"TEXCOORD_0":2
					},
					"indices":3,
					"material":0
				}
			]
		}
	],
	"accessors":[
		{
			"bufferView":0,
			"componentType":5126,
			"count":6048,
			"max":[
				1,
				42.085575103759766,
				1.0689654350280762
			],
			"min":[
				-1.0653477907180786,
				-1.0162544250488281,
				-1.0689654350280762
			],
			"type":"VEC3"
		},
		{
			"bufferView":1,
			"componentType":5126,
			"count":6048,
			"type":"VEC3"
		},
		{
			"bufferView":2,
			"componentType":5126,
			"count":6048,
			"type":"VEC2"
		},
		{
			"bufferView":3,
			"componentType":5123,
			"count":8784,
			"type":"SCALAR"
		}
	],
	"bufferViews":[
		{
			"buffer":0,
			"byteLength":72576,
			"byteOffset":0,
			"target":34962
		},
		{
			"buffer":0,
			"byteLength":72576,
			"byteOffset":72576,
			"target":34962
		},
		{
			"buffer":0,
			"byteLength":48384,
			"byteOffset":145152,
			"target":34962
		},
		{
			"buffer":0,
			"byteLength":17568,
			"byteOffset":193536,
			"target":34963
		}
	],
	"buffers":[
		{
			"byteLength":211104,
			"uri":"cave.bin"
		}
	]
}
