{
  "accessors": [
    {
      "bufferView": 2,
      "componentType": 5126,
      "count": 3068,
      "max": [
        0.33796799182891846,
        0.6061779856681824,
        1.0
      ],
      "min": [
        -0.33796799182891846,
        -0.6061779856681824,
        -1.0
      ],
      "type": "VEC3"
    },
    {
      "bufferView": 2,
      "byteOffset": 36816,
      "componentType": 5126,
      "count": 3068,
      "max": [
        0.9999812245368958,
        0.9993442296981812,
        0.9996569752693176
      ],
      "min": [
        -0.9999812245368958,
        -0.9997875094413757,
        -0.9874060153961182
      ],
      "type": "VEC3"
    },
    {
      "bufferView": 3,
      "componentType": 5126,
      "count": 3068,
      "max": [
        1.0,
        0.9949133992195129,
        0.99955815076828,
        1.0
      ],
      "min": [
        -0.9999951124191284,
        -0.9983985424041748,
        -0.9993167519569397,
        -1.0
      ],
      "type": "VEC4"
    },
    {
      "bufferView": 1,
      "componentType": 5126,
      "count": 3068,
      "max": [
        0.9861019849777222,
        0.9881960153579712
      ],
      "min": [
        0.014900299720466137,
        0.008621670305728912
      ],
      "type": "VEC2"
    },
    {
      "bufferView": 0,
      "componentType": 5125,
      "count": 15918,
      "type": "SCALAR"
    },
    {
      "bufferView": 2,
      "byteOffset": 73632,
      "componentType": 5126,
      "count": 236,
      "max": [
        0.10170000046491623,
        0.5455620288848877,
        0.7703379988670349
      ],
      "min": [
        -0.10170000046491623,
        0.48176199197769165,
        0.7067090272903442
      ],
      "type": "VEC3"
    },
    {
      "bufferView": 2,
      "byteOffset": 76464,
      "componentType": 5126,
      "count": 236,
      "max": [
        0.9956824779510498,
        0.9756188988685608,
        0.9768270254135132
      ],
      "min": [
        -0.9956824779510498,
        -0.990664541721344,
        -0.9921711087226868
      ],
      "type": "VEC3"
    },
    {
      "bufferView": 3,
      "byteOffset": 49088,
      "componentType": 5126,
      "count": 236,
      "max": [
        0.989366888999939,
        0.9296947717666626,
        0.7360230088233948,
        1.0
      ],
      "min": [
        -0.989718496799469,
        -0.9994292855262756,
        -0.9985802173614502,
        1.0
      ],
      "type": "VEC4"
    },
    {
      "bufferView": 1,
      "byteOffset": 24544,
      "componentType": 5126,
      "count": 236,
      "max": [
        0.34629198908805847,
        0.7428789734840393
      ],
      "min": [
        0.02266550064086914,
        0.5145289897918701
      ],
      "type": "VEC2"
    },
    {
      "bufferView": 0,
      "byteOffset": 63672,
      "componentType": 5125,
      "count": 1152,
      "type": "SCALAR"
    }
  ],
  "asset": {
    "extras": {
      "author": "zixisun02 (https://sketchfab.com/zixisun51)",
      "license": "CC-BY-4.0 (http://creativecommons.org/licenses/by/4.0/)",
      "source": "https://sketchfab.com/3d-models/crow-45a169ef98804f06a9b7a4af1a04d6f9",
      "title": "Crow"
    },
    "generator": "Sketchfab-12.68.0",
    "version": "2.0"
  },
  "bufferViews": [
    {
      "buffer": 0,
      "byteLength": 68280,
      "name": "floatBufferViews",
      "target": 34963
    },
    {
      "buffer": 0,
      "byteLength": 26432,
      "byteOffset": 68280,
      "byteStride": 8,
      "name": "floatBufferViews",
      "target": 34962
    },
    {
      "buffer": 0,
      "byteLength": 79296,
      "byteOffset": 94712,
      "byteStride": 12,
      "name": "floatBufferViews",
      "target": 34962
    },
    {
      "buffer": 0,
      "byteLength": 52864,
      "byteOffset": 174008,
      "byteStride": 16,
      "name": "floatBufferViews",
      "target": 34962
    }
  ],
  "buffers": [
    {
      "byteLength": 226872,
      "uri": "scene.bin"
    }
  ],
  "images": [
    {
      "uri": "textures/Crow_baseColor.jpeg"
    },
    {
      "uri": "textures/Crow_metallicRoughness.png"
    },
    {
      "uri": "textures/Crow_normal.png"
    }
  ],
  "materials": [
    {
      "doubleSided": true,
      "name": "Crow",
      "normalTexture": {
        "index": 2
      },
      "occlusionTexture": {
        "index": 1
      },
      "pbrMetallicRoughness": {
        "baseColorTexture": {
          "index": 0
        },
        "metallicRoughnessTexture": {
          "index": 1
        }
      }
    }
  ],
  "meshes": [
    {
      "name": "defaultMaterial",
      "primitives": [
        {
          "attributes": {
            "NORMAL": 1,
            "POSITION": 0,
            "TANGENT": 2,
            "TEXCOORD_0": 3
          },
          "indices": 4,
          "material": 0,
          "mode": 4
        }
      ]
    },
    {
      "name": "defaultMaterial",
      "primitives": [
        {
          "attributes": {
            "NORMAL": 6,
            "POSITION": 5,
            "TANGENT": 7,
            "TEXCOORD_0": 8
          },
          "indices": 9,
          "material": 0,
          "mode": 4
        }
      ]
    }
  ],
  "nodes": [
    {
      "children": [
        1
      ],
      "matrix": [
        1.0,
        0.0,
        0.0,
        0.0,
        0.0,
        2.220446049250313e-16,
        -1.0,
        0.0,
        0.0,
        1.0,
        2.220446049250313e-16,
        0.0,
        0.0,
        0.0,
        0.0,
        1.0
      ],
      "name": "Sketchfab_model"
    },
    {
      "children": [
        2,
        4
      ],
      "matrix": [
        1.0,
        0.0,
        0.0,
        0.0,
        0.0,
        -4.371139006309477e-08,
        0.999999999999999,
        0.0,
        0.0,
        -0.999999999999999,
        -4.371139006309477e-08,
        0.0,
        0.0,
        0.0,
        0.0,
        1.0
      ],
      "name": "Collada visual scene group"
    },
    {
      "children": [
        3
      ],
      "name": "Box001"
    },
    {
      "mesh": 0,
      "name": "defaultMaterial"
    },
    {
      "children": [
        5
      ],
      "name": "Group31367"
    },
    {
      "mesh": 1,
      "name": "defaultMaterial"
    }
  ],
  "samplers": [
    {
      "magFilter": 9729,
      "minFilter": 9987,
      "wrapS": 10497,
      "wrapT": 10497
    }
  ],
  "scene": 0,
  "scenes": [
    {
      "name": "Sketchfab_Scene",
      "nodes": [
        0
      ]
    }
  ],
  "textures": [
    {
      "sampler": 0,
      "source": 0
    },
    {
      "sampler": 0,
      "source": 1
    },
    {
      "sampler": 0,
      "source": 2
    }
  ]
}
