{
	"asset":{
		"generator":"Khronos glTF Blender I/O v4.3.47",
		"version":"2.0"
	},
	"scene":0,
	"scenes":[
		{
			"name":"Scene",
			"nodes":[
				0,
				1,
				2,
				3,
				4,
				5,
				6,
				7,
				8,
				9
			]
		}
	],
	"nodes":[
		{
			"mesh":0,
			"name":"Cube",
			"scale":[
				1.0054932832717896,
				0.07000000029802322,
				1.7665667533874512
			]
		},
		{
			"mesh":1,
			"name":"Cube.001",
			"rotation":[
				0,
				0,
				-0.7071068286895752,
				0.7071068286895752
			],
			"scale":[
				1.0054932832717896,
				0.07000000029802322,
				1.7665667533874512
			],
			"translation":[
				-1,
				0.940855860710144,
				0
			]
		},
		{
			"mesh":2,
			"name":"Cube.002",
			"scale":[
				0.05382430925965309,
				0.7203060984611511,
				0.03007591888308525
			],
			"translation":[
				-0.029263369739055634,
				-0.1153857409954071,
				0
			]
		},
		{
			"mesh":3,
			"name":"Cube.003",
			"scale":[
				0.8646267056465149,
				0.07000000029802322,
				0.8629739880561829
			],
			"translation":[
				0.03953097015619278,
				0.09932181239128113,
				1.7559776306152344
			]
		},
		{
			"mesh":4,
			"name":"Cube.004",
			"scale":[
				0.8646267056465149,
				0.07000000029802322,
				0.8629739880561829
			],
			"translation":[
				0.027482906356453896,
				0.0940944105386734,
				-1.7617757320404053
			]
		},
		{
			"mesh":5,
			"name":"Cube.005",
			"rotation":[
				0,
				0,
				-0.7071068286895752,
				0.7071068286895752
			],
			"scale":[
				0.8646267056465149,
				0.07000000029802322,
				0.8629739880561829
			],
			"translation":[
				-0.9201340079307556,
				1.0045735836029053,
				1.7559776306152344
			]
		},
		{
			"mesh":6,
			"name":"Cube.006",
			"scale":[
				0.8646267056465149,
				0.07000000029802322,
				0.8629739880561829
			],
			"translation":[
				0.027482906356453896,
				0.0940944105386734,
				-1.7617757320404053
			]
		},
		{
			"mesh":7,
			"name":"Cube.007",
			"rotation":[
				0,
				0,
				-0.7071068286895752,
				0.7071068286895752
			],
			"scale":[
				0.8646267056465149,
				0.07000000029802322,
				0.8629739880561829
			],
			"translation":[
				-0.9321821331977844,
				1.0000641345977783,
				-1.7617757320404053
			]
		},
		{
			"mesh":8,
			"name":"Sphere.001",
			"scale":[
				0.6679034233093262,
				1.4402278661727905,
				0.6679034233093262
			],
			"translation":[
				1.947644829750061,
				-0.5783243179321289,
				-1.8773504495620728
			]
		},
		{
			"mesh":9,
			"name":"Sphere.002",
			"scale":[
				0.6679034233093262,
				1.4402278661727905,
				0.6679034233093262
			],
			"translation":[
				2.0217137336730957,
				-0.5643206834793091,
				1.9617624282836914
			]
		}
	],
	"materials":[
		{
			"doubleSided":true,
			"name":"Material",
			"pbrMetallicRoughness":{
				"baseColorFactor":[
					0.800000011920929,
					0.800000011920929,
					0.800000011920929,
					1
				],
				"metallicFactor":0,
				"roughnessFactor":0.5
			}
		}
	],
	"meshes":[
		{
			"name":"Cube",
			"primitives":[
				{
					"attributes":{
						"POSITION":0,
						"NORMAL":1,
						"TEXCOORD_0":2
					},
					"indices":3,
					"material":0
				}
			]
		},
		{
			"name":"Cube.001",
			"primitives":[
				{
					"attributes":{
						"POSITION":4,
						"NORMAL":5,
						"TEXCOORD_0":6
					},
					"indices":3,
					"material":0
				}
			]
		},
		{
			"name":"Cube.002",
			"primitives":[
				{
					"attributes":{
						"POSITION":7,
						"NORMAL":8,
						"TEXCOORD_0":9
					},
					"indices":10,
					"material":0
				}
			]
		},
		{
			"name":"Cube.004",
			"primitives":[
				{
					"attributes":{
						"POSITION":11,
						"NORMAL":12,
						"TEXCOORD_0":13
					},
					"indices":3,
					"material":0
				}
			]
		},
		{
			"name":"Cube.005",
			"primitives":[
				{
					"attributes":{
						"POSITION":14,
						"NORMAL":15,
						"TEXCOORD_0":16
					},
					"indices":3,
					"material":0
				}
			]
		},
		{
			"name":"Cube.006",
			"primitives":[
				{
					"attributes":{
						"POSITION":17,
						"NORMAL":18,
						"TEXCOORD_0":19
					},
					"indices":3,
					"material":0
				}
			]
		},
		{
			"name":"Cube.007",
			"primitives":[
				{
					"attributes":{
						"POSITION":20,
						"NORMAL":21,
						"TEXCOORD_0":22
					},
					"indices":3,
					"material":0
				}
			]
		},
		{
			"name":"Cube.008",
			"primitives":[
				{
					"attributes":{
						"POSITION":23,
						"NORMAL":24,
						"TEXCOORD_0":25
					},
					"indices":3,
					"material":0
				}
			]
		},
		{
			"name":"Sphere.001",
			"primitives":[
				{
					"attributes":{
						"POSITION":26,
						"NORMAL":27,
						"TEXCOORD_0":28
					},
					"indices":29
				}
			]
		},
		{
			"name":"Sphere.002",
			"primitives":[
				{
					"attributes":{
						"POSITION":30,
						"NORMAL":31,
						"TEXCOORD_0":32
					},
					"indices":29
				}
			]
		}
	],
	"accessors":[
		{
			"bufferView":0,
			"componentType":5126,
			"count":48,
			"max":[
				1,
				1,
				1.998369812965393
			],
			"min":[
				-1,
				-1,
				-1.998369812965393
			],
			"type":"VEC3"
		},
		{
			"bufferView":1,
			"componentType":5126,
			"count":48,
			"type":"VEC3"
		},
		{
			"bufferView":2,
			"componentType":5126,
			"count":48,
			"type":"VEC2"
		},
		{
			"bufferView":3,
			"componentType":5123,
			"count":72,
			"type":"SCALAR"
		},
		{
			"bufferView":4,
			"componentType":5126,
			"count":48,
			"max":[
				1,
				1,
				1.998369812965393
			],
			"min":[
				-1,
				-1,
				-1.998369812965393
			],
			"type":"VEC3"
		},
		{
			"bufferView":5,
			"componentType":5126,
			"count":48,
			"type":"VEC3"
		},
		{
			"bufferView":6,
			"componentType":5126,
			"count":48,
			"type":"VEC2"
		},
		{
			"bufferView":7,
			"componentType":5126,
			"count":96,
			"max":[
				19.24161148071289,
				0.09182578325271606,
				117.50699615478516
			],
			"min":[
				-19.24161148071289,
				-1.9081742763519287,
				-117.50699615478516
			],
			"type":"VEC3"
		},
		{
			"bufferView":8,
			"componentType":5126,
			"count":96,
			"type":"VEC3"
		},
		{
			"bufferView":9,
			"componentType":5126,
			"count":96,
			"type":"VEC2"
		},
		{
			"bufferView":10,
			"componentType":5123,
			"count":144,
			"type":"SCALAR"
		},
		{
			"bufferView":11,
			"componentType":5126,
			"count":48,
			"max":[
				1,
				1,
				1.998369812965393
			],
			"min":[
				-1,
				-1,
				-1.998369812965393
			],
			"type":"VEC3"
		},
		{
			"bufferView":12,
			"componentType":5126,
			"count":48,
			"type":"VEC3"
		},
		{
			"bufferView":13,
			"componentType":5126,
			"count":48,
			"type":"VEC2"
		},
		{
			"bufferView":14,
			"componentType":5126,
			"count":48,
			"max":[
				1,
				1,
				1.998369812965393
			],
			"min":[
				-1,
				-1,
				-1.998369812965393
			],
			"type":"VEC3"
		},
		{
			"bufferView":15,
			"componentType":5126,
			"count":48,
			"type":"VEC3"
		},
		{
			"bufferView":16,
			"componentType":5126,
			"count":48,
			"type":"VEC2"
		},
		{
			"bufferView":17,
			"componentType":5126,
			"count":48,
			"max":[
				1,
				1,
				1.998369812965393
			],
			"min":[
				-1,
				-1,
				-1.998369812965393
			],
			"type":"VEC3"
		},
		{
			"bufferView":18,
			"componentType":5126,
			"count":48,
			"type":"VEC3"
		},
		{
			"bufferView":19,
			"componentType":5126,
			"count":48,
			"type":"VEC2"
		},
		{
			"bufferView":20,
			"componentType":5126,
			"count":48,
			"max":[
				1,
				1,
				1.998369812965393
			],
			"min":[
				-1,
				-1,
				-1.998369812965393
			],
			"type":"VEC3"
		},
		{
			"bufferView":21,
			"componentType":5126,
			"count":48,
			"type":"VEC3"
		},
		{
			"bufferView":22,
			"componentType":5126,
			"count":48,
			"type":"VEC2"
		},
		{
			"bufferView":23,
			"componentType":5126,
			"count":48,
			"max":[
				1,
				1,
				1.998369812965393
			],
			"min":[
				-1,
				-1,
				-1.998369812965393
			],
			"type":"VEC3"
		},
		{
			"bufferView":24,
			"componentType":5126,
			"count":48,
			"type":"VEC3"
		},
		{
			"bufferView":25,
			"componentType":5126,
			"count":48,
			"type":"VEC2"
		},
		{
			"bufferView":26,
			"componentType":5126,
			"count":2848,
			"max":[
				0.9807851314544678,
				1.6300338506698608,
				0.9807849526405334
			],
			"min":[
				-0.9807848334312439,
				0.19509032368659973,
				-0.9807852506637573
			],
			"type":"VEC3"
		},
		{
			"bufferView":27,
			"componentType":5126,
			"count":2848,
			"type":"VEC3"
		},
		{
			"bufferView":28,
			"componentType":5126,
			"count":2848,
			"type":"VEC2"
		},
		{
			"bufferView":29,
			"componentType":5123,
			"count":4128,
			"type":"SCALAR"
		},
		{
			"bufferView":30,
			"componentType":5126,
			"count":2848,
			"max":[
				0.9807851314544678,
				1.6300338506698608,
				0.9807849526405334
			],
			"min":[
				-0.9807848334312439,
				0.19509032368659973,
				-0.9807852506637573
			],
			"type":"VEC3"
		},
		{
			"bufferView":31,
			"componentType":5126,
			"count":2848,
			"type":"VEC3"
		},
		{
			"bufferView":32,
			"componentType":5126,
			"count":2848,
			"type":"VEC2"
		}
	],
	"bufferViews":[
		{
			"buffer":0,
			"byteLength":576,
			"byteOffset":0,
			"target":34962
		},
		{
			"buffer":0,
			"byteLength":576,
			"byteOffset":576,
			"target":34962
		},
		{
			"buffer":0,
			"byteLength":384,
			"byteOffset":1152,
			"target":34962
		},
		{
			"buffer":0,
			"byteLength":144,
			"byteOffset":1536,
			"target":34963
		},
		{
			"buffer":0,
			"byteLength":576,
			"byteOffset":1680,
			"target":34962
		},
		{
			"buffer":0,
			"byteLength":576,
			"byteOffset":2256,
			"target":34962
		},
		{
			"buffer":0,
			"byteLength":384,
			"byteOffset":2832,
			"target":34962
		},
		{
			"buffer":0,
			"byteLength":1152,
			"byteOffset":3216,
			"target":34962
		},
		{
			"buffer":0,
			"byteLength":1152,
			"byteOffset":4368,
			"target":34962
		},
		{
			"buffer":0,
			"byteLength":768,
			"byteOffset":5520,
			"target":34962
		},
		{
			"buffer":0,
			"byteLength":288,
			"byteOffset":6288,
			"target":34963
		},
		{
			"buffer":0,
			"byteLength":576,
			"byteOffset":6576,
			"target":34962
		},
		{
			"buffer":0,
			"byteLength":576,
			"byteOffset":7152,
			"target":34962
		},
		{
			"buffer":0,
			"byteLength":384,
			"byteOffset":7728,
			"target":34962
		},
		{
			"buffer":0,
			"byteLength":576,
			"byteOffset":8112,
			"target":34962
		},
		{
			"buffer":0,
			"byteLength":576,
			"byteOffset":8688,
			"target":34962
		},
		{
			"buffer":0,
			"byteLength":384,
			"byteOffset":9264,
			"target":34962
		},
		{
			"buffer":0,
			"byteLength":576,
			"byteOffset":9648,
			"target":34962
		},
		{
			"buffer":0,
			"byteLength":576,
			"byteOffset":10224,
			"target":34962
		},
		{
			"buffer":0,
			"byteLength":384,
			"byteOffset":10800,
			"target":34962
		},
		{
			"buffer":0,
			"byteLength":576,
			"byteOffset":11184,
			"target":34962
		},
		{
			"buffer":0,
			"byteLength":576,
			"byteOffset":11760,
			"target":34962
		},
		{
			"buffer":0,
			"byteLength":384,
			"byteOffset":12336,
			"target":34962
		},
		{
			"buffer":0,
			"byteLength":576,
			"byteOffset":12720,
			"target":34962
		},
		{
			"buffer":0,
			"byteLength":576,
			"byteOffset":13296,
			"target":34962
		},
		{
			"buffer":0,
			"byteLength":384,
			"byteOffset":13872,
			"target":34962
		},
		{
			"buffer":0,
			"byteLength":34176,
			"byteOffset":14256,
			"target":34962
		},
		{
			"buffer":0,
			"byteLength":34176,
			"byteOffset":48432,
			"target":34962
		},
		{
			"buffer":0,
			"byteLength":22784,
			"byteOffset":82608,
			"target":34962
		},
		{
			"buffer":0,
			"byteLength":8256,
			"byteOffset":105392,
			"target":34963
		},
		{
			"buffer":0,
			"byteLength":34176,
			"byteOffset":113648,
			"target":34962
		},
		{
			"buffer":0,
			"byteLength":34176,
			"byteOffset":147824,
			"target":34962
		},
		{
			"buffer":0,
			"byteLength":22784,
			"byteOffset":182000,
			"target":34962
		}
	],
	"buffers":[
		{
			"byteLength":204784,
			"uri":"vrtable.bin"
		}
	]
}
